<svg width="24" height="24" viewBox="0 0 24 24" fill="none" xmlns="http://www.w3.org/2000/svg">
<path fill-rule="evenodd" clip-rule="evenodd" d="M9.92356 21.8083C6.10956 21.8083 2.85156 21.2313 2.85156 18.9213C2.85156 16.6113 6.08856 14.5103 9.92356 14.5103C13.7375 14.5103 16.9955 16.5913 16.9955 18.9003C16.9955 21.2093 13.7585 21.8083 9.92356 21.8083Z" stroke="black" stroke-width="1.5" stroke-linecap="round" stroke-linejoin="round"/>
<path fill-rule="evenodd" clip-rule="evenodd" d="M9.92366 11.2159C12.4266 11.2159 14.4566 9.1859 14.4566 6.6829C14.4566 4.1789 12.4266 2.1499 9.92366 2.1499C7.42066 2.1499 5.39066 4.1789 5.39066 6.6829C5.38166 9.1769 7.39766 11.2069 9.89166 11.2159H9.92366Z" stroke="black" stroke-width="1.5" stroke-linecap="round" stroke-linejoin="round"/>
<path d="M19.1328 8.12891V12.139" stroke="black" stroke-width="1.5" stroke-linecap="round" stroke-linejoin="round"/>
<path d="M21.1759 10.1338H17.0859" stroke="black" stroke-width="1.5" stroke-linecap="round" stroke-linejoin="round"/>
</svg>
