<svg width="82" height="16" viewBox="0 0 82 16" fill="black" xmlns="http://www.w3.org/2000/svg">
                    <path d="M81.7071 8.70711C82.0976 8.31658 82.0976 7.68342 81.7071 7.29289L75.3431 0.928932C74.9526 0.538408 74.3195 0.538408 73.9289 0.928932C73.5384 1.31946 73.5384 1.95262 73.9289 2.34315L79.5858 8L73.9289 13.6569C73.5384 14.0474 73.5384 14.6805 73.9289 15.0711C74.3195 15.4616 74.9526 15.4616 75.3431 15.0711L81.7071 8.70711ZM0 9H2.025V7H0V9ZM6.075 9H10.125V7H6.075V9ZM14.175 9H18.225V7H14.175V9ZM22.275 9H26.325V7H22.275V9ZM30.375 9H34.425V7H30.375V9ZM38.475 9H42.525V7H38.475V9ZM46.575 9H50.625V7H46.575V9ZM54.675 9H58.725V7H54.675V9ZM62.775 9H66.825V7H62.775V9ZM70.875 9H74.925V7H70.875V9ZM78.975 9H81V7H78.975V9ZM81.7071 8.70711C82.0976 8.31658 82.0976 7.68342 81.7071 7.29289L75.3431 0.928932C74.9526 0.538408 74.3195 0.538408 73.9289 0.928932C73.5384 1.31946 73.5384 1.95262 73.9289 2.34315L79.5858 8L73.9289 13.6569C73.5384 14.0474 73.5384 14.6805 73.9289 15.0711C74.3195 15.4616 74.9526 15.4616 75.3431 15.0711L81.7071 8.70711ZM0 9H2.025V7H0V9ZM6.075 9H10.125V7H6.075V9ZM14.175 9H18.225V7H14.175V9ZM22.275 9H26.325V7H22.275V9ZM30.375 9H34.425V7H30.375V9ZM38.475 9H42.525V7H38.475V9ZM46.575 9H50.625V7H46.575V9ZM54.675 9H58.725V7H54.675V9ZM62.775 9H66.825V7H62.775V9ZM70.875 9H74.925V7H70.875V9ZM78.975 9H81V7H78.975V9Z" fill="#A0A0A0"></path>
                    </svg>