<svg width="24" height="24" viewBox="0 0 24 24" fill="none" xmlns="http://www.w3.org/2000/svg">
<path fill-rule="evenodd" clip-rule="evenodd" d="M7.18484 10.0903C7.58249 10.0903 7.90484 10.4127 7.90484 10.8103V17.2363C7.90484 17.6339 7.58249 17.9563 7.18484 17.9563C6.7872 17.9563 6.46484 17.6339 6.46484 17.2363V10.8103C6.46484 10.4127 6.7872 10.0903 7.18484 10.0903Z" fill="black"/>
<path fill-rule="evenodd" clip-rule="evenodd" d="M11.5559 7.01514C11.9536 7.01514 12.2759 7.33749 12.2759 7.73514V17.2371C12.2759 17.6348 11.9536 17.9571 11.5559 17.9571C11.1583 17.9571 10.8359 17.6348 10.8359 17.2371V7.73514C10.8359 7.33749 11.1583 7.01514 11.5559 7.01514Z" fill="black"/>
<path fill-rule="evenodd" clip-rule="evenodd" d="M15.8567 13.4863C16.2544 13.4863 16.5767 13.8087 16.5767 14.2063V17.2369C16.5767 17.6345 16.2544 17.9569 15.8567 17.9569C15.4591 17.9569 15.1367 17.6345 15.1367 17.2369V14.2063C15.1367 13.8087 15.4591 13.4863 15.8567 13.4863Z" fill="black"/>
<path fill-rule="evenodd" clip-rule="evenodd" d="M4.76232 5.7218C3.51524 6.96887 2.92828 9.05005 2.92828 12.5151C2.92828 15.9802 3.51524 18.0614 4.76232 19.3084C6.00941 20.5556 8.09058 21.1425 11.5557 21.1425C15.0207 21.1425 17.1019 20.5556 18.349 19.3084C19.596 18.0614 20.183 15.9802 20.183 12.5151C20.183 9.05005 19.596 6.96887 18.349 5.7218C17.1019 4.47471 15.0207 3.88775 11.5557 3.88775C8.09058 3.88775 6.00941 4.47471 4.76232 5.7218ZM3.74409 4.70356C5.41819 3.02947 8.0107 2.44775 11.5557 2.44775C15.1006 2.44775 17.6931 3.02947 19.3672 4.70356C21.0413 6.37766 21.623 8.97018 21.623 12.5151C21.623 16.0601 21.0413 18.6526 19.3672 20.3267C17.6931 22.0008 15.1006 22.5825 11.5557 22.5825C8.0107 22.5825 5.41819 22.0008 3.74409 20.3267C2.06999 18.6526 1.48828 16.0601 1.48828 12.5151C1.48828 8.97018 2.06999 6.37766 3.74409 4.70356Z" fill="black"/>
</svg>
