<svg width="15" height="8" viewBox="0 0 15 8" fill="none" xmlns="http://www.w3.org/2000/svg">
<path d="M1.26469 0.214987C1.19313 0.146313 1.10895 0.092626 1.01696 0.0569906C0.924968 0.0213546 0.826964 0.00446793 0.728546 0.0072951C0.630127 0.0101227 0.53322 0.0326085 0.443359 0.0734682C0.353497 0.114328 0.27244 0.172762 0.204816 0.245435C0.137192 0.318107 0.0843257 0.403594 0.0492347 0.497015C0.0141436 0.590436 -0.00248462 0.68996 0.00029951 0.789907C0.00308364 0.889853 0.0252255 0.988265 0.065461 1.07952C0.105696 1.17078 0.163237 1.25309 0.234799 1.32177L6.98084 7.79193C7.12001 7.92555 7.30427 8 7.49579 8C7.68731 8 7.87157 7.92555 8.01074 7.79193L14.7575 1.32177C14.8307 1.25355 14.8897 1.17125 14.9313 1.07966C14.9728 0.988064 14.996 0.889002 14.9995 0.788224C15.0031 0.687445 14.9868 0.58696 14.9518 0.492605C14.9167 0.398249 14.8636 0.311905 14.7954 0.238586C14.7272 0.165267 14.6454 0.106435 14.5546 0.0655087C14.4639 0.0245822 14.366 0.00237593 14.2668 0.000180575C14.1675 -0.00201478 14.0688 0.0158433 13.9763 0.0527185C13.8839 0.0895938 13.7996 0.144751 13.7284 0.214986L7.49579 6.1919L1.26469 0.214987Z" fill="black"/>
</svg>
