<svg width="27" height="27" viewBox="0 0 33 33" fill="none" xmlns="http://www.w3.org/2000/svg">
<path d="M16.4999 3.78125C6.96162 3.78125 3.78125 6.96163 3.78125 16.5C3.78125 26.0383 6.96162 29.2187 16.4999 29.2187C26.0383 29.2187 29.2187 26.0383 29.2187 16.5" stroke="black" stroke-width="1.5" stroke-linecap="round" stroke-linejoin="round"/>
<path fill-rule="evenodd" clip-rule="evenodd" d="M26.8515 5.91762C25.4861 4.709 23.4003 4.8355 22.1916 6.20087C22.1916 6.20087 16.1843 12.9865 14.1011 15.3419C12.0153 17.6959 13.5443 20.9478 13.5443 20.9478C13.5443 20.9478 16.9873 22.0382 19.0415 19.7172C21.0971 17.3962 27.1348 10.5775 27.1348 10.5775C28.3434 9.21212 28.2155 7.12625 26.8515 5.91762Z" stroke="black" stroke-width="1.5" stroke-linecap="round" stroke-linejoin="round"/>
<path d="M20.6367 7.97559L25.5798 12.3522" stroke="black" stroke-width="1.5" stroke-linecap="round" stroke-linejoin="round"/>
</svg>
