<svg width="25" height="25" viewBox="0 0 25 25" fill="none" xmlns="http://www.w3.org/2000/svg">
<path fill-rule="evenodd" clip-rule="evenodd" d="M12.626 15.625C12.1945 15.625 11.8447 15.2752 11.8447 14.8438L11.8447 2.30104C11.8447 1.86958 12.1945 1.51979 12.626 1.51979C13.0574 1.51979 13.4072 1.86958 13.4072 2.30104L13.4072 14.8437C13.4072 15.2752 13.0574 15.625 12.626 15.625Z" fill="black"/>
<path fill-rule="evenodd" clip-rule="evenodd" d="M9.0366 5.90317C8.73088 5.5987 8.72986 5.10401 9.03433 4.79828L12.0718 1.74828C12.2184 1.60109 12.4177 1.51828 12.6254 1.51828C12.8332 1.51828 13.0324 1.60109 13.1789 1.74828L16.2164 4.79828C16.5209 5.10401 16.5199 5.5987 16.2142 5.90317C15.9085 6.20765 15.4138 6.20661 15.1093 5.90088L12.6254 3.40672L10.1415 5.90088C9.83698 6.20661 9.34233 6.20765 9.0366 5.90317Z" fill="black"/>
<path fill-rule="evenodd" clip-rule="evenodd" d="M4.63518 10.1167C5.23472 9.30768 6.21483 8.9032 8.0193 8.73685C8.44896 8.69727 8.76514 8.31685 8.72554 7.88716C8.68594 7.45758 8.30553 7.14133 7.87588 7.18101C5.95118 7.35841 4.38963 7.82372 3.37979 9.18654C2.4116 10.4931 2.08301 12.4616 2.08301 15.2506C2.08301 18.9483 2.66274 21.2218 4.56211 22.3885C5.46738 22.9446 6.58853 23.1904 7.87196 23.3098C9.15035 23.4287 10.6861 23.4287 12.4667 23.4287L12.5326 23.4287C14.3132 23.4287 15.849 23.4287 17.1274 23.3098C18.4108 23.1904 19.532 22.9446 20.4373 22.3885C22.3366 21.2218 22.9163 18.9483 22.9163 15.2506C22.9163 12.4616 22.5878 10.4931 21.6196 9.18653C20.6098 7.82372 19.0482 7.35841 17.1235 7.18101C16.6938 7.14133 16.3134 7.45758 16.2738 7.88716C16.2342 8.31685 16.5504 8.69726 16.9801 8.73685C18.7846 8.9032 19.7647 9.30768 20.3641 10.1167C21.0054 10.9821 21.3538 12.4875 21.3538 15.2506C21.3538 18.9497 20.7305 20.3747 19.6195 21.0572C19.0195 21.4257 18.1836 21.6423 16.9827 21.754C15.7846 21.8655 14.3197 21.8662 12.4997 21.8662C10.6797 21.8662 9.21482 21.8655 8.01672 21.754C6.81577 21.6423 5.97988 21.4257 5.37995 21.0572C4.2689 20.3747 3.64551 18.9497 3.64551 15.2506C3.64551 12.4875 3.99399 10.9821 4.63518 10.1167Z" fill="black"/>
</svg>
