<svg width="27" height="19" viewBox="0 0 27 19" fill="none" xmlns="http://www.w3.org/2000/svg">
<g clip-path="url(#clip0_44_1097)">
<path d="M0 0.175781H27V18.1758H0V0.175781Z" fill="white"/>
<path d="M0 0.175781H27V6.17578H0V0.175781Z" fill="#F15B25"/>
<path d="M0 12.1758H27V18.1758H0V12.1758Z" fill="#006934"/>
<path d="M13.5 11.9504C15.0326 11.9504 16.275 10.708 16.275 9.17539C16.275 7.6428 15.0326 6.40039 13.5 6.40039C11.9674 6.40039 10.725 7.6428 10.725 9.17539C10.725 10.708 11.9674 11.9504 13.5 11.9504Z" fill="#2C2C6F"/>
<path d="M13.5 11.5754C14.8255 11.5754 15.9 10.5009 15.9 9.17539C15.9 7.84991 14.8255 6.77539 13.5 6.77539C12.1745 6.77539 11.1 7.84991 11.1 9.17539C11.1 10.5009 12.1745 11.5754 13.5 11.5754Z" fill="white"/>
<path d="M13.5 9.65531C13.7651 9.65531 13.98 9.44041 13.98 9.17531C13.98 8.91022 13.7651 8.69531 13.5 8.69531C13.2349 8.69531 13.02 8.91022 13.02 9.17531C13.02 9.44041 13.2349 9.65531 13.5 9.65531Z" fill="#2C2C6F"/>
<path d="M13.5 6.77637L13.59 8.22059L13.5 8.93566L13.41 8.22059L13.5 6.77637Z" fill="#2C2C6F"/>
<path d="M13.7996 6.90062C13.8571 6.90819 13.9098 6.86772 13.9174 6.81022C13.925 6.75273 13.8845 6.69999 13.827 6.69242C13.7695 6.68485 13.7168 6.72532 13.7092 6.78281C13.7016 6.84031 13.7421 6.89305 13.7996 6.90062Z" fill="#2C2C6F"/>
<path d="M13.5001 11.5752L13.4101 10.131L13.5001 9.4159L13.5901 10.131L13.5001 11.5752Z" fill="#2C2C6F"/>
<path d="M13.2005 11.4509C13.143 11.4434 13.0903 11.4838 13.0827 11.5413C13.0752 11.5988 13.1156 11.6516 13.1731 11.6591C13.2306 11.6667 13.2834 11.6262 13.2909 11.5687C13.2985 11.5113 13.258 11.4585 13.2005 11.4509Z" fill="#2C2C6F"/>
<path d="M14.1212 6.85728L13.8344 8.27559L13.5624 8.943L13.6605 8.229L14.1212 6.85728Z" fill="#2C2C6F"/>
<path d="M14.3783 7.05548C14.4319 7.07768 14.4933 7.05224 14.5155 6.99866C14.5377 6.94509 14.5123 6.88367 14.4587 6.86147C14.4051 6.83928 14.3437 6.86472 14.3215 6.91829C14.2993 6.97187 14.3248 7.03329 14.3783 7.05548Z" fill="#2C2C6F"/>
<path d="M12.8788 11.4943L13.1656 10.076L13.4376 9.40857L13.3395 10.1226L12.8788 11.4943Z" fill="#2C2C6F"/>
<path d="M12.6217 11.2961C12.5681 11.2739 12.5067 11.2993 12.4845 11.3529C12.4623 11.4065 12.4877 11.4679 12.5413 11.4901C12.5949 11.5123 12.6563 11.4868 12.6785 11.4333C12.7007 11.3797 12.6752 11.3183 12.6217 11.2961Z" fill="#2C2C6F"/>
<path d="M14.7001 7.09773L14.056 8.39347L13.6205 8.96774L13.9001 8.30347L14.7001 7.09773Z" fill="#2C2C6F"/>
<path d="M14.8972 7.35552C14.9432 7.39083 15.0092 7.38215 15.0445 7.33614C15.0798 7.29014 15.0711 7.22422 15.0251 7.18892C14.9791 7.15362 14.9132 7.1623 14.8779 7.2083C14.8425 7.25431 14.8512 7.32022 14.8972 7.35552Z" fill="#2C2C6F"/>
<path d="M12.3 11.2548L12.9442 9.95907L13.3796 9.3848L13.1 10.0491L12.3 11.2548Z" fill="#2C2C6F"/>
<path d="M12.1029 10.997C12.0569 10.9617 11.991 10.9704 11.9557 11.0164C11.9204 11.0624 11.929 11.1283 11.975 11.1636C12.0211 11.1989 12.087 11.1902 12.1223 11.1442C12.1576 11.0982 12.1489 11.0323 12.1029 10.997Z" fill="#2C2C6F"/>
<path d="M15.1972 7.47868L14.2396 8.56354L13.6703 9.00553L14.1123 8.43626L15.1972 7.47868Z" fill="#2C2C6F"/>
<path d="M15.3208 7.7795C15.3561 7.82551 15.422 7.83419 15.468 7.79888C15.514 7.76358 15.5227 7.69767 15.4874 7.65166C15.4521 7.60566 15.3862 7.59698 15.3402 7.63228C15.2942 7.66758 15.2855 7.73349 15.3208 7.7795Z" fill="#2C2C6F"/>
<path d="M11.8029 10.8739L12.7605 9.789L13.3298 9.34701L12.8878 9.91628L11.8029 10.8739Z" fill="#2C2C6F"/>
<path d="M11.6793 10.573C11.644 10.527 11.5781 10.5184 11.5321 10.5537C11.4861 10.589 11.4774 10.6549 11.5127 10.7009C11.548 10.7469 11.614 10.7556 11.66 10.7203C11.706 10.685 11.7146 10.619 11.6793 10.573Z" fill="#2C2C6F"/>
<path d="M15.5784 7.97638L14.3727 8.77644L13.7084 9.05603L14.2827 8.62055L15.5784 7.97638Z" fill="#2C2C6F"/>
<path d="M15.6203 8.29749C15.6425 8.35106 15.704 8.37651 15.7575 8.35431C15.8111 8.33212 15.8365 8.2707 15.8144 8.21712C15.7922 8.16355 15.7307 8.13811 15.6772 8.1603C15.6236 8.18249 15.5981 8.24391 15.6203 8.29749Z" fill="#2C2C6F"/>
<path d="M11.4216 10.3762L12.6273 9.5761L13.2916 9.29651L12.7173 9.73199L11.4216 10.3762Z" fill="#2C2C6F"/>
<path d="M11.3797 10.0551C11.3575 10.0015 11.296 9.97603 11.2425 9.99823C11.1889 10.0204 11.1635 10.0818 11.1856 10.1354C11.2078 10.189 11.2693 10.2144 11.3228 10.1922C11.3764 10.17 11.4019 10.1086 11.3797 10.0551Z" fill="#2C2C6F"/>
<path d="M15.8181 8.55471L14.4464 9.01544L13.7324 9.11357L14.3998 8.84156L15.8181 8.55471Z" fill="#2C2C6F"/>
<path d="M15.7752 8.87565C15.7828 8.93315 15.8355 8.97362 15.893 8.96605C15.9505 8.95848 15.991 8.90574 15.9834 8.84824C15.9759 8.79075 15.9231 8.75028 15.8656 8.75785C15.8081 8.76541 15.7677 8.81816 15.7752 8.87565Z" fill="#2C2C6F"/>
<path d="M11.1817 9.79685L12.5534 9.33613L13.2674 9.23799L12.6 9.51L11.1817 9.79685Z" fill="#2C2C6F"/>
<path d="M11.2245 9.47591C11.217 9.41842 11.1642 9.37794 11.1067 9.38551C11.0492 9.39308 11.0088 9.44583 11.0163 9.50332C11.0239 9.56081 11.0766 9.60129 11.1341 9.59372C11.1916 9.58615 11.2321 9.5334 11.2245 9.47591Z" fill="#2C2C6F"/>
<path d="M15.8999 9.17672L14.4557 9.26679L13.7407 9.17711L14.4557 9.08717L15.8999 9.17672Z" fill="#2C2C6F"/>
<path d="M15.7753 9.47614C15.7677 9.53364 15.8082 9.58638 15.8657 9.59394C15.9232 9.60151 15.9759 9.56103 15.9835 9.50353C15.9911 9.44603 15.9506 9.39328 15.8931 9.38572C15.8356 9.37816 15.7828 9.41864 15.7753 9.47614Z" fill="#2C2C6F"/>
<path d="M11.1 9.1768L12.5442 9.08673L13.2592 9.17641L12.5442 9.26634L11.1 9.1768Z" fill="#2C2C6F"/>
<path d="M11.2246 8.87738C11.2322 8.81988 11.1917 8.76713 11.1342 8.75957C11.0767 8.75201 11.0239 8.79249 11.0164 8.84999C11.0088 8.90749 11.0493 8.96023 11.1068 8.9678C11.1643 8.97536 11.217 8.93488 11.2246 8.87738Z" fill="#2C2C6F"/>
<path d="M15.8181 9.7969L14.3998 9.51005L13.7324 9.23804L14.4464 9.33617L15.8181 9.7969Z" fill="#2C2C6F"/>
<path d="M15.6203 10.0538C15.5981 10.1073 15.6235 10.1688 15.6771 10.1909C15.7307 10.2131 15.7921 10.1877 15.8143 10.1341C15.8365 10.0805 15.8111 10.0191 15.7575 9.99693C15.7039 9.97474 15.6425 10.0002 15.6203 10.0538Z" fill="#2C2C6F"/>
<path d="M11.1817 8.55564L12.6 8.84249L13.2675 9.1145L12.5535 9.01636L11.1817 8.55564Z" fill="#2C2C6F"/>
<path d="M11.3796 8.29878C11.4018 8.2452 11.3763 8.18378 11.3228 8.16159C11.2692 8.1394 11.2078 8.16484 11.1856 8.21842C11.1634 8.272 11.1888 8.33342 11.2424 8.35561C11.296 8.3778 11.3574 8.35236 11.3796 8.29878Z" fill="#2C2C6F"/>
<path d="M15.5784 10.3758L14.2827 9.73162L13.7084 9.29615L14.3727 9.57574L15.5784 10.3758Z" fill="#2C2C6F"/>
<path d="M15.3206 10.5726C15.2853 10.6187 15.294 10.6846 15.34 10.7199C15.386 10.7552 15.4519 10.7465 15.4872 10.7005C15.5225 10.6545 15.5139 10.5886 15.4678 10.5533C15.4218 10.518 15.3559 10.5266 15.3206 10.5726Z" fill="#2C2C6F"/>
<path d="M11.4215 7.97675L12.7172 8.62092L13.2915 9.05639L12.6272 8.7768L11.4215 7.97675Z" fill="#2C2C6F"/>
<path d="M11.6793 7.77989C11.7146 7.73388 11.7059 7.66797 11.6599 7.63267C11.6139 7.59737 11.548 7.60604 11.5127 7.65205C11.4773 7.69806 11.486 7.76397 11.532 7.79927C11.578 7.83457 11.644 7.8259 11.6793 7.77989Z" fill="#2C2C6F"/>
<path d="M15.197 10.8732L14.1121 9.91562L13.6701 9.34636L14.2394 9.78835L15.197 10.8732Z" fill="#2C2C6F"/>
<path d="M14.897 10.9969C14.851 11.0322 14.8423 11.0981 14.8776 11.1441C14.9129 11.1902 14.9788 11.1988 15.0249 11.1635C15.0709 11.1282 15.0795 11.0623 15.0442 11.0163C15.0089 10.9703 14.943 10.9616 14.897 10.9969Z" fill="#2C2C6F"/>
<path d="M11.8028 7.47835L12.8876 8.43594L13.3296 9.00521L12.7604 8.56322L11.8028 7.47835Z" fill="#2C2C6F"/>
<path d="M12.1027 7.35464C12.1487 7.31934 12.1574 7.25342 12.1221 7.20742C12.0868 7.16141 12.0209 7.15273 11.9749 7.18803C11.9289 7.22334 11.9202 7.28925 11.9555 7.33526C11.9908 7.38126 12.0567 7.38994 12.1027 7.35464Z" fill="#2C2C6F"/>
<path d="M14.7 11.255L13.9 10.0492L13.6204 9.38495L14.0558 9.95922L14.7 11.255Z" fill="#2C2C6F"/>
<path d="M14.3782 11.2964C14.3246 11.3185 14.2992 11.38 14.3213 11.4335C14.3435 11.4871 14.405 11.5126 14.4585 11.4904C14.5121 11.4682 14.5376 11.4068 14.5154 11.3532C14.4932 11.2996 14.4317 11.2742 14.3782 11.2964Z" fill="#2C2C6F"/>
<path d="M12.3 7.09758L13.1 8.30332L13.3796 8.96759L12.9442 8.39332L12.3 7.09758Z" fill="#2C2C6F"/>
<path d="M12.6218 7.05618C12.6754 7.03399 12.7008 6.97257 12.6787 6.91899C12.6565 6.86542 12.595 6.83997 12.5415 6.86216C12.4879 6.88435 12.4624 6.94578 12.4846 6.99935C12.5068 7.05293 12.5683 7.07837 12.6218 7.05618Z" fill="#2C2C6F"/>
<path d="M14.1211 11.494L13.6603 10.1223L13.5622 9.40827L13.8342 10.0757L14.1211 11.494Z" fill="#2C2C6F"/>
<path d="M13.7995 11.451C13.742 11.4586 13.7016 11.5113 13.7091 11.5688C13.7167 11.6263 13.7694 11.6668 13.8269 11.6592C13.8844 11.6516 13.9249 11.5989 13.9173 11.5414C13.9098 11.4839 13.857 11.4434 13.7995 11.451Z" fill="#2C2C6F"/>
<path d="M12.8788 6.85659L13.3395 8.22832L13.4377 8.94231L13.1657 8.2749L12.8788 6.85659Z" fill="#2C2C6F"/>
<path d="M13.2004 6.89958C13.2579 6.89202 13.2983 6.83927 13.2908 6.78178C13.2832 6.72428 13.2304 6.68381 13.173 6.69138C13.1155 6.69894 13.075 6.75169 13.0826 6.80918C13.0901 6.86668 13.1429 6.90715 13.2004 6.89958Z" fill="#2C2C6F"/>
</g>
<defs>
<clipPath id="clip0_44_1097">
<rect width="27" height="18" fill="white" transform="translate(0 0.175781)"/>
</clipPath>
</defs>
</svg>
