<svg width="45" height="31" viewBox="0 0 45 31" fill="none" xmlns="http://www.w3.org/2000/svg">
<g clip-path="url(#clip0_2409_661)">
<path d="M0 0.175781H44.9999V30.1757H0V0.175781Z" fill="white"/>
<path d="M0 0.175781H44.9999V10.1758H0V0.175781Z" fill="#F15B25"/>
<path d="M0 20.1758H44.9999V30.1758H0V20.1758Z" fill="#006934"/>
<path d="M22.5 19.8008C25.0543 19.8008 27.125 17.7301 27.125 15.1758C27.125 12.6215 25.0543 10.5508 22.5 10.5508C19.9457 10.5508 17.875 12.6215 17.875 15.1758C17.875 17.7301 19.9457 19.8008 22.5 19.8008Z" fill="#2C2C6F"/>
<path d="M22.5 19.1758C24.7091 19.1758 26.5 17.3849 26.5 15.1758C26.5 12.9666 24.7091 11.1758 22.5 11.1758C20.2909 11.1758 18.5 12.9666 18.5 15.1758C18.5 17.3849 20.2909 19.1758 22.5 19.1758Z" fill="white"/>
<path d="M22.4999 15.976C22.9418 15.976 23.2999 15.6178 23.2999 15.176C23.2999 14.7341 22.9418 14.376 22.4999 14.376C22.0581 14.376 21.7 14.7341 21.7 15.176C21.7 15.6178 22.0581 15.976 22.4999 15.976Z" fill="#2C2C6F"/>
<path d="M22.4996 11.1758L22.6496 13.5828L22.4996 14.7746L22.3496 13.5828L22.4996 11.1758Z" fill="#2C2C6F"/>
<path d="M22.9989 11.3835C23.0947 11.3961 23.1826 11.3287 23.1953 11.2329C23.2079 11.137 23.1404 11.0491 23.0446 11.0365C22.9488 11.0239 22.8609 11.0914 22.8483 11.1872C22.8356 11.283 22.9031 11.3709 22.9989 11.3835Z" fill="#2C2C6F"/>
<path d="M22.4997 19.1758L22.3497 16.7687L22.4997 15.577L22.6497 16.7687L22.4997 19.1758Z" fill="#2C2C6F"/>
<path d="M22.0004 18.968C21.9045 18.9554 21.8166 19.0229 21.804 19.1187C21.7914 19.2145 21.8588 19.3024 21.9547 19.315C22.0505 19.3277 22.1384 19.2602 22.151 19.1644C22.1636 19.0686 22.0962 18.9807 22.0004 18.968Z" fill="#2C2C6F"/>
<path d="M23.535 11.3123L23.0569 13.6761L22.6036 14.7884L22.7671 13.5985L23.535 11.3123Z" fill="#2C2C6F"/>
<path d="M23.9635 11.6423C24.0528 11.6793 24.1552 11.6369 24.1922 11.5476C24.2292 11.4583 24.1868 11.3559 24.0975 11.3189C24.0082 11.2819 23.9058 11.3243 23.8688 11.4136C23.8318 11.5029 23.8742 11.6053 23.9635 11.6423Z" fill="#2C2C6F"/>
<path d="M21.4645 19.0403L21.9426 16.6764L22.3959 15.5641L22.2324 16.7541L21.4645 19.0403Z" fill="#2C2C6F"/>
<path d="M21.036 18.7103C20.9467 18.6733 20.8443 18.7157 20.8073 18.805C20.7704 18.8943 20.8128 18.9966 20.902 19.0336C20.9913 19.0706 21.0937 19.0282 21.1307 18.9389C21.1677 18.8496 21.1253 18.7473 21.036 18.7103Z" fill="#2C2C6F"/>
<path d="M24.4998 11.7117L23.4262 13.8713L22.7004 14.8284L23.1664 13.7213L24.4998 11.7117Z" fill="#2C2C6F"/>
<path d="M24.8284 12.141C24.905 12.1999 25.0149 12.1854 25.0737 12.1087C25.1326 12.0321 25.1181 11.9222 25.0414 11.8634C24.9647 11.8045 24.8549 11.819 24.7961 11.8957C24.7372 11.9723 24.7517 12.0822 24.8284 12.141Z" fill="#2C2C6F"/>
<path d="M20.5 18.6398L21.5736 16.4803L22.2994 15.5232L21.8334 16.6303L20.5 18.6398Z" fill="#2C2C6F"/>
<path d="M20.1714 18.2105C20.0947 18.1517 19.9849 18.1661 19.926 18.2428C19.8672 18.3195 19.8817 18.4294 19.9583 18.4882C20.035 18.547 20.1449 18.5326 20.2037 18.4559C20.2625 18.3792 20.2481 18.2694 20.1714 18.2105Z" fill="#2C2C6F"/>
<path d="M25.328 12.3473L23.732 14.1554L22.7832 14.892L23.5199 13.9432L25.328 12.3473Z" fill="#2C2C6F"/>
<path d="M25.5342 12.848C25.593 12.9247 25.7029 12.9391 25.7795 12.8803C25.8562 12.8215 25.8707 12.7116 25.8119 12.6349C25.753 12.5583 25.6432 12.5438 25.5665 12.6026C25.4898 12.6615 25.4753 12.7713 25.5342 12.848Z" fill="#2C2C6F"/>
<path d="M19.6715 18.0043L21.2675 16.1962L22.2163 15.4595L21.4796 16.4083L19.6715 18.0043Z" fill="#2C2C6F"/>
<path d="M19.4653 17.5036C19.4065 17.4269 19.2966 17.4124 19.22 17.4713C19.1433 17.5301 19.1288 17.64 19.1877 17.7166C19.2465 17.7933 19.3563 17.8078 19.433 17.7489C19.5097 17.6901 19.5242 17.5802 19.4653 17.5036Z" fill="#2C2C6F"/>
<path d="M25.9642 13.1758L23.9546 14.5092L22.8475 14.9752L23.8046 14.2494L25.9642 13.1758Z" fill="#2C2C6F"/>
<path d="M26.0339 13.7116C26.0709 13.8009 26.1733 13.8433 26.2625 13.8063C26.3518 13.7694 26.3942 13.667 26.3573 13.5777C26.3203 13.4884 26.2179 13.446 26.1286 13.483C26.0393 13.52 25.9969 13.6223 26.0339 13.7116Z" fill="#2C2C6F"/>
<path d="M19.0361 17.1758L21.0456 15.8423L22.1527 15.3764L21.1956 16.1021L19.0361 17.1758Z" fill="#2C2C6F"/>
<path d="M18.9663 16.6399C18.9294 16.5506 18.827 16.5082 18.7377 16.5452C18.6484 16.5822 18.606 16.6846 18.643 16.7739C18.68 16.8632 18.7823 16.9056 18.8716 16.8686C18.9609 16.8316 19.0033 16.7292 18.9663 16.6399Z" fill="#2C2C6F"/>
<path d="M26.364 14.141L24.0778 14.9089L22.8878 15.0724L24.0002 14.6191L26.364 14.141Z" fill="#2C2C6F"/>
<path d="M26.2925 14.6772C26.3051 14.773 26.3931 14.8405 26.4889 14.8279C26.5847 14.8152 26.6522 14.7273 26.6395 14.6315C26.6269 14.5357 26.539 14.4682 26.4432 14.4808C26.3474 14.4935 26.2799 14.5814 26.2925 14.6772Z" fill="#2C2C6F"/>
<path d="M18.6362 16.2116L20.9224 15.4437L22.1124 15.2801L21.0001 15.7335L18.6362 16.2116Z" fill="#2C2C6F"/>
<path d="M18.7077 15.6753C18.6951 15.5795 18.6072 15.5121 18.5114 15.5247C18.4155 15.5373 18.3481 15.6252 18.3607 15.721C18.3733 15.8169 18.4612 15.8843 18.557 15.8717C18.6529 15.8591 18.7203 15.7712 18.7077 15.6753Z" fill="#2C2C6F"/>
<path d="M26.4998 15.176L24.0928 15.3262L22.901 15.1767L24.0928 15.0268L26.4998 15.176Z" fill="#2C2C6F"/>
<path d="M26.292 15.6757C26.2794 15.7716 26.3469 15.8595 26.4427 15.8721C26.5385 15.8847 26.6264 15.8172 26.639 15.7214C26.6516 15.6255 26.5842 15.5376 26.4883 15.525C26.3925 15.5124 26.3046 15.5799 26.292 15.6757Z" fill="#2C2C6F"/>
<path d="M18.4997 15.1765L20.9067 15.0264L22.0985 15.1758L20.9068 15.3257L18.4997 15.1765Z" fill="#2C2C6F"/>
<path d="M18.7075 14.6768C18.7201 14.581 18.6526 14.4931 18.5568 14.4805C18.461 14.4679 18.3731 14.5353 18.3605 14.6312C18.3479 14.727 18.4153 14.8149 18.5112 14.8275C18.607 14.8401 18.6949 14.7726 18.7075 14.6768Z" fill="#2C2C6F"/>
<path d="M26.3635 16.2103L23.9997 15.7322L22.8873 15.2789L24.0773 15.4425L26.3635 16.2103Z" fill="#2C2C6F"/>
<path d="M26.0335 16.6391C25.9965 16.7284 26.0389 16.8307 26.1282 16.8677C26.2175 16.9047 26.3199 16.8623 26.3569 16.773C26.3938 16.6837 26.3514 16.5813 26.2621 16.5444C26.1728 16.5074 26.0705 16.5498 26.0335 16.6391Z" fill="#2C2C6F"/>
<path d="M18.636 14.1403L20.9998 14.6183L22.1122 15.0717L20.9222 14.9081L18.636 14.1403Z" fill="#2C2C6F"/>
<path d="M18.966 13.7115C19.003 13.6222 18.9606 13.5198 18.8713 13.4829C18.782 13.4459 18.6796 13.4883 18.6426 13.5776C18.6057 13.6669 18.6481 13.7692 18.7374 13.8062C18.8267 13.8432 18.929 13.8008 18.966 13.7115Z" fill="#2C2C6F"/>
<path d="M25.9638 17.1758L23.8043 16.1022L22.8472 15.3764L23.9543 15.8424L25.9638 17.1758Z" fill="#2C2C6F"/>
<path d="M25.5343 17.5039C25.4754 17.5806 25.4899 17.6904 25.5666 17.7493C25.6432 17.8081 25.7531 17.7936 25.8119 17.717C25.8708 17.6403 25.8563 17.5304 25.7796 17.4716C25.7029 17.4128 25.5931 17.4272 25.5343 17.5039Z" fill="#2C2C6F"/>
<path d="M19.0354 13.1758L21.195 14.2494L22.1521 14.9752L21.045 14.5092L19.0354 13.1758Z" fill="#2C2C6F"/>
<path d="M19.465 12.8477C19.5239 12.771 19.5094 12.6611 19.4327 12.6023C19.356 12.5435 19.2462 12.5579 19.1873 12.6346C19.1285 12.7113 19.143 12.8211 19.2196 12.88C19.2963 12.9388 19.4062 12.9243 19.465 12.8477Z" fill="#2C2C6F"/>
<path d="M25.3283 18.0055L23.5202 16.4095L22.7835 15.4607L23.7323 16.1974L25.3283 18.0055Z" fill="#2C2C6F"/>
<path d="M24.8285 18.2117C24.7518 18.2705 24.7374 18.3804 24.7962 18.457C24.855 18.5337 24.9649 18.5482 25.0416 18.4893C25.1183 18.4305 25.1327 18.3207 25.0739 18.244C25.0151 18.1673 24.9052 18.1528 24.8285 18.2117Z" fill="#2C2C6F"/>
<path d="M19.6715 12.3471L21.4796 13.943L22.2162 14.8918L21.2675 14.1552L19.6715 12.3471Z" fill="#2C2C6F"/>
<path d="M20.1712 12.1409C20.2479 12.082 20.2624 11.9722 20.2035 11.8955C20.1447 11.8188 20.0349 11.8044 19.9582 11.8632C19.8815 11.922 19.867 12.0319 19.9259 12.1086C19.9847 12.1852 20.0946 12.1997 20.1712 12.1409Z" fill="#2C2C6F"/>
<path d="M24.4997 18.6395L23.1663 16.6299L22.7003 15.5228L23.4261 16.4799L24.4997 18.6395Z" fill="#2C2C6F"/>
<path d="M23.9634 18.7094C23.8741 18.7464 23.8317 18.8488 23.8687 18.9381C23.9057 19.0274 24.0081 19.0698 24.0974 19.0328C24.1866 18.9958 24.2291 18.8934 24.1921 18.8041C24.1551 18.7148 24.0527 18.6724 23.9634 18.7094Z" fill="#2C2C6F"/>
<path d="M20.4995 11.7121L21.833 13.7217L22.2989 14.8288L21.5731 13.8717L20.4995 11.7121Z" fill="#2C2C6F"/>
<path d="M21.0359 11.6421C21.1251 11.6052 21.1675 11.5028 21.1306 11.4135C21.0936 11.3242 20.9912 11.2818 20.9019 11.3188C20.8126 11.3558 20.7702 11.4581 20.8072 11.5474C20.8442 11.6367 20.9466 11.6791 21.0359 11.6421Z" fill="#2C2C6F"/>
<path d="M23.5348 19.0398L22.7669 16.7536L22.6034 15.5636L23.0567 16.676L23.5348 19.0398Z" fill="#2C2C6F"/>
<path d="M22.9988 18.9678C22.903 18.9804 22.8356 19.0683 22.8482 19.1642C22.8608 19.26 22.9487 19.3274 23.0445 19.3148C23.1403 19.3022 23.2078 19.2143 23.1952 19.1185C23.1826 19.0227 23.0947 18.9552 22.9988 18.9678Z" fill="#2C2C6F"/>
<path d="M21.4645 11.3118L22.2323 13.598L22.3959 14.788L21.9426 13.6756L21.4645 11.3118Z" fill="#2C2C6F"/>
<path d="M22.0004 11.3837C22.0963 11.3711 22.1637 11.2832 22.1511 11.1874C22.1385 11.0916 22.0506 11.0241 21.9548 11.0367C21.8589 11.0493 21.7915 11.1373 21.8041 11.2331C21.8167 11.3289 21.9046 11.3964 22.0004 11.3837Z" fill="#2C2C6F"/>
</g>
<defs>
<clipPath id="clip0_2409_661">
<rect width="44.9999" height="29.9999" fill="white" transform="translate(0 0.175781)"/>
</clipPath>
</defs>
</svg>
