<svg width="16" height="16" viewBox="0 0 12 12" fill="none" xmlns="http://www.w3.org/2000/svg"><path d="M2.91667 2.91667H6.41667C6.7375 2.91667 7 2.65417 7 2.33333C7 2.0125 6.7375 1.75 6.41667 1.75H2.91667C2.275 1.75 1.75 2.275 1.75 2.91667V11.0833C1.75 11.725 2.275 12.25 2.91667 12.25H6.41667C6.7375 12.25 7 11.9875 7 11.6667C7 11.3458 6.7375 11.0833 6.41667 11.0833H2.91667V2.91667Z" fill="#FF5050"></path><path d="M12.0458 6.79598L10.4183 5.16848C10.3778 5.1268 10.3257 5.09818 10.2687 5.08627C10.2118 5.07436 10.1526 5.07971 10.0988 5.10164C10.0449 5.12356 9.99877 5.16106 9.96633 5.20934C9.9339 5.25762 9.9166 5.31448 9.91667 5.37265V6.41681H5.83333C5.5125 6.41681 5.25 6.67931 5.25 7.00015C5.25 7.32098 5.5125 7.58348 5.83333 7.58348H9.91667V8.62765C9.91667 8.89015 10.2317 9.01848 10.4125 8.83181L12.04 7.20431C12.1567 7.09348 12.1567 6.90681 12.0458 6.79598Z" fill="#FF5050"></path></svg>