<svg width="46" height="46" viewBox="0 0 46 46" fill="none" xmlns="http://www.w3.org/2000/svg">
<path d="M21.0512 15.1617C20.802 14.9911 20.5203 14.9106 20.2404 14.9106C19.7824 14.9106 19.33 15.1291 19.0521 15.5355C18.6036 16.191 18.7704 17.086 19.4259 17.5345C22.4714 19.618 25.3081 22.1997 25.494 22.9395C25.3081 23.7963 22.4714 26.378 19.4259 28.4671C18.7704 28.9156 18.6036 29.8088 19.054 30.4643C19.4968 31.1179 20.3919 31.2846 21.0512 30.84C23.7844 28.9655 28.3652 25.458 28.3652 22.999C28.3652 20.538 23.7824 17.0324 21.0512 15.1617Z" fill="black"/>
<path fill-rule="evenodd" clip-rule="evenodd" d="M42.166 23.0001C42.166 8.84933 37.1501 3.83342 22.9994 3.83341C8.8486 3.83341 3.83269 8.84933 3.83269 23.0001C3.83268 37.1508 8.8486 42.1667 22.9993 42.1667C37.1501 42.1667 42.166 37.1508 42.166 23.0001ZM39.291 23.0001C39.291 35.4852 35.4845 39.2917 22.9993 39.2917C10.5142 39.2917 6.70768 35.4852 6.70769 23.0001C6.70769 10.5149 10.5142 6.70841 22.9994 6.70841C35.4845 6.70842 39.291 10.5149 39.291 23.0001Z" fill="black"/>
</svg>
