<svg width="46" height="46" viewBox="0 0 46 46" fill="none" xmlns="http://www.w3.org/2000/svg">
<path d="M24.9488 30.8383C25.198 31.0089 25.4797 31.0894 25.7596 31.0894C26.2176 31.0894 26.67 30.8709 26.9479 30.4645C27.3964 29.809 27.2296 28.914 26.5741 28.4655C23.5286 26.382 20.6919 23.8003 20.506 23.0605C20.6919 22.2037 23.5286 19.622 26.5741 17.5329C27.2296 17.0844 27.3964 16.1912 26.946 15.5357C26.5032 14.8821 25.6081 14.7154 24.9488 15.16C22.2156 17.0345 17.6348 20.542 17.6348 23.001C17.6348 25.462 22.2176 28.9676 24.9488 30.8383Z" fill="black"/>
<path fill-rule="evenodd" clip-rule="evenodd" d="M3.83398 22.9999C3.83398 37.1507 8.8499 42.1666 23.0007 42.1666C37.1514 42.1666 42.1673 37.1507 42.1673 22.9999C42.1673 8.84917 37.1514 3.83325 23.0007 3.83325C8.8499 3.83325 3.83398 8.84917 3.83398 22.9999ZM6.70898 22.9999C6.70898 10.5148 10.5155 6.70825 23.0007 6.70825C35.4858 6.70825 39.2923 10.5148 39.2923 22.9999C39.2923 35.4851 35.4858 39.2916 23.0007 39.2916C10.5155 39.2916 6.70898 35.4851 6.70898 22.9999Z" fill="black"/>
</svg>
