<svg width="56" height="56" viewBox="0 0 56 56" fill="none" xmlns="http://www.w3.org/2000/svg">
<rect x="0.5" y="0.5" width="55" height="55" rx="27.5" fill="white" stroke="black"/>
<path fill-rule="evenodd" clip-rule="evenodd" d="M28.1684 27.404H28.1986C30.8268 27.404 32.9645 25.266 32.9645 22.6375C32.9645 20.01 30.8268 17.8721 28.1986 17.8721C25.5703 17.8721 23.4326 20.01 23.4326 22.6356C23.4239 25.2553 25.5469 27.3942 28.1684 27.404Z" fill="black"/>
<path opacity="0.4" fill-rule="evenodd" clip-rule="evenodd" d="M28.1992 29.7871C24.3904 29.7871 21.0498 31.9902 21.0498 34.5004C21.0498 37.7304 26.4316 37.7304 28.1992 37.7304C29.9669 37.7304 35.3477 37.7304 35.3477 34.4794C35.3477 31.9796 32.0071 29.7871 28.1992 29.7871Z" fill="black"/>
</svg>
