<svg width="24" height="24" viewBox="0 0 24 24" fill="none" xmlns="http://www.w3.org/2000/svg">
<path fill-rule="evenodd" clip-rule="evenodd" d="M8.06836 15.4497C8.06836 15.0355 8.39072 14.6997 8.78836 14.6997H13.9724C14.37 14.6997 14.6924 15.0355 14.6924 15.4497C14.6924 15.8639 14.37 16.1997 13.9724 16.1997H8.78836C8.39072 16.1997 8.06836 15.8639 8.06836 15.4497Z" fill="black"/>
<path fill-rule="evenodd" clip-rule="evenodd" d="M8.06836 11.4385C8.06836 11.0243 8.39072 10.6885 8.78836 10.6885H12.0101C12.4077 10.6885 12.7301 11.0243 12.7301 11.4385C12.7301 11.8527 12.4077 12.1885 12.0101 12.1885H8.78836C8.39072 12.1885 8.06836 11.8527 8.06836 11.4385Z" fill="black"/>
<path fill-rule="evenodd" clip-rule="evenodd" d="M4.97283 4.27249C6.44341 2.58293 8.72424 2 11.7979 2C12.6875 2 13.5081 2.05142 14.2476 2.15694C14.3973 2.17831 14.5369 2.24827 14.6464 2.35689L20.0896 7.7569C20.2002 7.86656 20.2744 8.00998 20.3015 8.16645C20.4939 9.27377 20.5819 10.5511 20.5819 12C20.5819 15.4998 20.0839 18.0653 18.6308 19.7318C17.1587 21.42 14.8752 22 11.7979 22C8.72494 22 6.44385 21.4199 4.97304 19.7315C3.52141 18.0652 3.02344 15.4999 3.02344 12C3.02344 8.5048 3.52152 5.93992 4.97283 4.27249ZM6.03964 5.28001C4.97335 6.50508 4.46344 8.56519 4.46344 12C4.46344 15.4401 4.97347 17.4999 6.03943 18.7235C7.08622 19.9251 8.83233 20.5 11.7979 20.5C14.7684 20.5 16.5169 19.925 17.5649 18.7232C18.6318 17.4997 19.1419 15.4402 19.1419 12C19.1419 10.7185 19.0699 9.61383 18.9236 8.67165L13.8243 3.61282C13.2188 3.53823 12.5416 3.5 11.7979 3.5C8.83303 3.5 7.08668 4.07707 6.03964 5.28001Z" fill="black"/>
<path fill-rule="evenodd" clip-rule="evenodd" d="M13.6165 2.08252C14.0141 2.08252 14.3365 2.41831 14.3365 2.83252V5.49352C14.3365 6.93702 15.4596 8.10652 16.8459 8.10652H19.6789C20.0765 8.10652 20.3989 8.44231 20.3989 8.85652C20.3989 9.27073 20.0765 9.60652 19.6789 9.60652H16.8459C14.6649 9.60652 12.8965 7.76603 12.8965 5.49352V2.83252C12.8965 2.41831 13.2189 2.08252 13.6165 2.08252Z" fill="black"/>
</svg>
