<svg width="24" height="24" viewBox="0 0 24 24" fill="none" xmlns="http://www.w3.org/2000/svg">
<path fill-rule="evenodd" clip-rule="evenodd" d="M11.9728 20.3681C8.7338 20.3681 5.9668 19.8781 5.9668 17.9161C5.9668 15.9541 8.7158 14.2461 11.9728 14.2461C15.2118 14.2461 17.9788 15.9381 17.9788 17.8991C17.9788 19.8601 15.2298 20.3681 11.9728 20.3681Z" stroke="black" stroke-width="1.5" stroke-linecap="round" stroke-linejoin="round"/>
<path fill-rule="evenodd" clip-rule="evenodd" d="M11.9731 11.449C14.0991 11.449 15.8231 9.726 15.8231 7.6C15.8231 5.474 14.0991 3.75 11.9731 3.75C9.84706 3.75 8.12306 5.474 8.12306 7.6C8.11706 9.718 9.82706 11.442 11.9461 11.449H11.9731Z" stroke="black" stroke-width="1.5" stroke-linecap="round" stroke-linejoin="round"/>
<path d="M18.3613 10.3916C19.5983 10.0606 20.5103 8.93254 20.5103 7.58954C20.5103 6.18854 19.5173 5.01854 18.1953 4.74854" stroke="black" stroke-width="1.5" stroke-linecap="round" stroke-linejoin="round"/>
<path d="M18.9434 13.5444C20.6974 13.5444 22.1954 14.7334 22.1954 15.7954C22.1954 16.4204 21.6784 17.1014 20.8944 17.2854" stroke="black" stroke-width="1.5" stroke-linecap="round" stroke-linejoin="round"/>
<path d="M5.58359 10.3916C4.34559 10.0606 3.43359 8.93254 3.43359 7.58954C3.43359 6.18854 4.42759 5.01854 5.74859 4.74854" stroke="black" stroke-width="1.5" stroke-linecap="round" stroke-linejoin="round"/>
<path d="M5.002 13.5444C3.248 13.5444 1.75 14.7334 1.75 15.7954C1.75 16.4204 2.267 17.1014 3.052 17.2854" stroke="black" stroke-width="1.5" stroke-linecap="round" stroke-linejoin="round"/>
</svg>
