<svg width="24" height="24" viewBox="0 0 24 24" fill="none" xmlns="http://www.w3.org/2000/svg">
<path fill-rule="evenodd" clip-rule="evenodd" d="M0.671875 13.2483C0.671875 12.8507 0.994232 12.5283 1.39187 12.5283H21.6786C22.0763 12.5283 22.3986 12.8507 22.3986 13.2483C22.3986 13.646 22.0763 13.9683 21.6786 13.9683H1.39187C0.994232 13.9683 0.671875 13.646 0.671875 13.2483Z" fill="black"/>
<path fill-rule="evenodd" clip-rule="evenodd" d="M9.12609 3.67551C9.19037 4.06792 8.92435 4.43814 8.53194 4.50242C6.95406 4.76087 5.86543 5.26505 5.10748 6.023C4.34952 6.78096 3.84534 7.86959 3.58689 9.44746C3.52261 9.83988 3.15239 10.1059 2.75998 10.0416C2.36756 9.97735 2.10156 9.60708 2.16583 9.21471C2.45458 7.45179 3.04959 6.04442 4.08924 5.00476C5.12889 3.96512 6.53626 3.37011 8.29918 3.08136C8.69159 3.01708 9.06181 3.28309 9.12609 3.67551Z" fill="black"/>
<path fill-rule="evenodd" clip-rule="evenodd" d="M2.65695 12.5319C3.0545 12.523 3.38401 12.8381 3.39295 13.2356C3.41109 14.0431 3.4724 14.7686 3.57662 15.4065C3.58034 15.4223 3.58354 15.4384 3.58622 15.4547C3.84462 17.0323 4.34866 18.1185 5.10646 18.8752C5.86468 19.6325 6.95395 20.1369 8.53326 20.4001C8.92548 20.4655 9.19046 20.8364 9.12509 21.2287C9.05972 21.6209 8.68876 21.8859 8.29652 21.8205C6.53502 21.5269 5.12829 20.9321 4.08891 19.8942C3.05939 18.866 2.46577 17.4784 2.17381 15.7397C2.17031 15.7247 2.16726 15.7096 2.16468 15.6943C2.04154 14.9615 1.9731 14.1485 1.95331 13.268C1.94437 12.8704 2.25941 12.5409 2.65695 12.5319Z" fill="black"/>
<path fill-rule="evenodd" clip-rule="evenodd" d="M20.4116 12.5319C20.8093 12.5409 21.1242 12.8704 21.1153 13.268C21.0959 14.13 21.029 14.9264 20.912 15.6455C20.9105 15.6595 20.9086 15.6736 20.9063 15.6877C20.617 17.4509 20.0216 18.8558 18.9817 19.8942C17.9422 20.9321 16.5355 21.5269 14.774 21.8205C14.3818 21.8859 14.0108 21.6209 13.9455 21.2287C13.8801 20.8364 14.145 20.4655 14.5373 20.4001C16.1166 20.1369 17.2059 19.6325 17.9642 18.8752C18.7149 18.1256 19.2168 17.0529 19.4778 15.4996C19.4794 15.4853 19.4813 15.471 19.4837 15.4566C19.5922 14.8058 19.6571 14.0631 19.6757 13.2356C19.6846 12.8381 20.0141 12.523 20.4116 12.5319Z" fill="black"/>
<path fill-rule="evenodd" clip-rule="evenodd" d="M13.9451 3.67551C14.0094 3.28309 14.3796 3.01708 14.772 3.08136C16.5349 3.37011 17.9423 3.96512 18.982 5.00476C20.0216 6.04442 20.6167 7.45179 20.9053 9.21471C20.9696 9.60708 20.7036 9.97735 20.3112 10.0416C19.9188 10.1059 19.5486 9.83988 19.4843 9.44746C19.2259 7.86959 18.7217 6.78096 17.9637 6.023C17.2058 5.26505 16.1171 4.76087 14.5393 4.50242C14.1468 4.43814 13.8808 4.06792 13.9451 3.67551Z" fill="black"/>
</svg>
